# Blender 4.4.0
# www.blender.org
mtllib fake.mtl
o tree_2.001
v -0.996341 -0.015152 -0.080955
v 1.003659 -0.015152 -0.080955
v -0.996341 1.984848 -0.080955
v 1.003659 1.984848 -0.080955
vn -0.0000 -0.0000 1.0000
vt 0.000000 0.000000
vt 1.000000 0.000000
vt 1.000000 1.000000
vt 0.000000 1.000000
s 0
usemtl The_one.003
f 1/1/1 2/2/1 4/3/1 3/4/1
o tree_2
v 1.021510 -0.015152 -0.080955
v 3.021510 -0.015152 -0.080955
v 1.021510 1.984848 -0.080955
v 3.021510 1.984848 -0.080955
vn -0.0000 -0.0000 1.0000
vt 0.000000 0.000000
vt 1.000000 0.000000
vt 1.000000 1.000000
vt 0.000000 1.000000
s 0
usemtl The_one.002
f 5/5/2 6/6/2 8/7/2 7/8/2
o Tree_1
v -3.008490 -0.015152 -0.080955
v -1.008490 -0.015152 -0.080955
v -3.008490 1.984848 -0.080955
v -1.008490 1.984848 -0.080955
vn -0.0000 -0.0000 1.0000
vt 0.000000 0.000000
vt 1.000000 0.000000
vt 1.000000 1.000000
vt 0.000000 1.000000
s 0
usemtl The_one
f 9/9/3 10/10/3 12/11/3 11/12/3
